<?xml version="1.0" encoding="UTF-8" standalone="no"?>
<!DOCTYPE svg PUBLIC "-//W3C//DTD SVG 1.1//EN"
 "http://www.w3.org/Graphics/SVG/1.1/DTD/svg11.dtd">
<!-- Generated by graphviz version 2.43.0 (0)
 -->
<!-- Title: %3 Pages: 1 -->
<svg width="1184pt" height="422pt"
 viewBox="0.00 0.00 1184.42 422.00" xmlns="http://www.w3.org/2000/svg" xmlns:xlink="http://www.w3.org/1999/xlink">
<g id="graph0" class="graph" transform="scale(1 1) rotate(0) translate(4 418)">
<title>%3</title>
<polygon fill="white" stroke="transparent" points="-4,4 -4,-418 1180.42,-418 1180.42,4 -4,4"/>
<!-- targets -->
<g id="node1" class="node">
<title>targets</title>
<ellipse fill="none" stroke="black" cx="1042.22" cy="-126" rx="44.39" ry="18"/>
<text text-anchor="middle" x="1042.22" y="-122.3" font-family="Times,serif" font-size="14.00">targets</text>
</g>
<!-- all -->
<g id="node2" class="node">
<title>all</title>
<ellipse fill="none" stroke="black" cx="1149.42" cy="-126" rx="27" ry="18"/>
<text text-anchor="middle" x="1149.42" y="-122.3" font-family="Times,serif" font-size="14.00">all</text>
</g>
<!-- targets&#45;&gt;all -->
<g id="edge1" class="edge">
<title>targets&#45;&gt;all</title>
<path fill="none" stroke="black" d="M1086.61,-126C1095.13,-126 1103.98,-126 1112.23,-126"/>
<polygon fill="black" stroke="black" points="1112.29,-129.5 1122.29,-126 1112.29,-122.5 1112.29,-129.5"/>
</g>
<!-- target_sheet_html -->
<g id="node3" class="node">
<title>target_sheet_html</title>
<ellipse fill="none" stroke="black" cx="867.13" cy="-180" rx="94.78" ry="18"/>
<text text-anchor="middle" x="867.13" y="-176.3" font-family="Times,serif" font-size="14.00">target_sheet_html</text>
</g>
<!-- target_sheet_html&#45;&gt;targets -->
<g id="edge2" class="edge">
<title>target_sheet_html&#45;&gt;targets</title>
<path fill="none" stroke="black" d="M917.27,-164.67C942.3,-156.86 972.51,-147.44 996.84,-139.85"/>
<polygon fill="black" stroke="black" points="998.02,-143.14 1006.53,-136.82 995.94,-136.46 998.02,-143.14"/>
</g>
<!-- target_dag_svg -->
<g id="node4" class="node">
<title>target_dag_svg</title>
<ellipse fill="none" stroke="black" cx="867.13" cy="-99" rx="81.49" ry="18"/>
<text text-anchor="middle" x="867.13" y="-95.3" font-family="Times,serif" font-size="14.00">target_dag_svg</text>
</g>
<!-- target_dag_svg&#45;&gt;targets -->
<g id="edge3" class="edge">
<title>target_dag_svg&#45;&gt;targets</title>
<path fill="none" stroke="black" d="M934.06,-109.28C952.83,-112.21 972.97,-115.35 990.67,-118.11"/>
<polygon fill="black" stroke="black" points="990.36,-121.61 1000.78,-119.69 991.44,-114.69 990.36,-121.61"/>
</g>
<!-- html -->
<g id="node5" class="node">
<title>html</title>
<ellipse fill="none" stroke="black" cx="659.55" cy="-315" rx="32.49" ry="18"/>
<text text-anchor="middle" x="659.55" y="-311.3" font-family="Times,serif" font-size="14.00">html</text>
</g>
<!-- html&#45;&gt;target_sheet_html -->
<g id="edge4" class="edge">
<title>html&#45;&gt;target_sheet_html</title>
<path fill="none" stroke="black" d="M681.39,-301.31C716.63,-278.17 788.34,-231.09 831.31,-202.87"/>
<polygon fill="black" stroke="black" points="833.33,-205.73 839.76,-197.31 829.48,-199.88 833.33,-205.73"/>
</g>
<!-- css -->
<g id="node6" class="node">
<title>css</title>
<ellipse fill="none" stroke="black" cx="659.55" cy="-234" rx="27" ry="18"/>
<text text-anchor="middle" x="659.55" y="-230.3" font-family="Times,serif" font-size="14.00">css</text>
</g>
<!-- css&#45;&gt;target_sheet_html -->
<g id="edge5" class="edge">
<title>css&#45;&gt;target_sheet_html</title>
<path fill="none" stroke="black" d="M684.94,-227.59C713.37,-220.12 761.52,-207.48 801.03,-197.1"/>
<polygon fill="black" stroke="black" points="802.09,-200.44 810.87,-194.51 800.31,-193.67 802.09,-200.44"/>
</g>
<!-- pages -->
<g id="node7" class="node">
<title>pages</title>
<ellipse fill="none" stroke="black" cx="659.55" cy="-180" rx="38.19" ry="18"/>
<text text-anchor="middle" x="659.55" y="-176.3" font-family="Times,serif" font-size="14.00">pages</text>
</g>
<!-- pages&#45;&gt;target_sheet_html -->
<g id="edge6" class="edge">
<title>pages&#45;&gt;target_sheet_html</title>
<path fill="none" stroke="black" d="M698.26,-180C716.43,-180 739.22,-180 762.09,-180"/>
<polygon fill="black" stroke="black" points="762.23,-183.5 772.23,-180 762.23,-176.5 762.23,-183.5"/>
</g>
<!-- md2html_py -->
<g id="node8" class="node">
<title>md2html_py</title>
<ellipse fill="none" stroke="black" cx="659.55" cy="-126" rx="68.49" ry="18"/>
<text text-anchor="middle" x="659.55" y="-122.3" font-family="Times,serif" font-size="14.00">md2html_py</text>
</g>
<!-- md2html_py&#45;&gt;target_sheet_html -->
<g id="edge7" class="edge">
<title>md2html_py&#45;&gt;target_sheet_html</title>
<path fill="none" stroke="black" d="M708.49,-138.59C735.99,-145.82 770.9,-154.99 800.88,-162.86"/>
<polygon fill="black" stroke="black" points="800.27,-166.32 810.84,-165.48 802.05,-159.55 800.27,-166.32"/>
</g>
<!-- source_sheet_section_1_html -->
<g id="node9" class="node">
<title>source_sheet_section_1_html</title>
<ellipse fill="none" stroke="black" cx="401.92" cy="-396" rx="144.87" ry="18"/>
<text text-anchor="middle" x="401.92" y="-392.3" font-family="Times,serif" font-size="14.00">source_sheet_section_1_html</text>
</g>
<!-- source_sheet_section_1_html&#45;&gt;html -->
<g id="edge8" class="edge">
<title>source_sheet_section_1_html&#45;&gt;html</title>
<path fill="none" stroke="black" d="M495.98,-382.29C513.1,-378.71 530.67,-374.32 546.85,-369 575.32,-359.63 605.83,-344.5 627.76,-332.63"/>
<polygon fill="black" stroke="black" points="629.53,-335.66 636.6,-327.77 626.15,-329.52 629.53,-335.66"/>
</g>
<!-- source_sheet_section_3_html -->
<g id="node10" class="node">
<title>source_sheet_section_3_html</title>
<ellipse fill="none" stroke="black" cx="401.92" cy="-342" rx="144.87" ry="18"/>
<text text-anchor="middle" x="401.92" y="-338.3" font-family="Times,serif" font-size="14.00">source_sheet_section_3_html</text>
</g>
<!-- source_sheet_section_3_html&#45;&gt;html -->
<g id="edge9" class="edge">
<title>source_sheet_section_3_html&#45;&gt;html</title>
<path fill="none" stroke="black" d="M512.81,-330.39C549.77,-326.49 588.77,-322.37 617.11,-319.38"/>
<polygon fill="black" stroke="black" points="617.85,-322.82 627.43,-318.29 617.11,-315.86 617.85,-322.82"/>
</g>
<!-- source_sheet_section_5_html -->
<g id="node11" class="node">
<title>source_sheet_section_5_html</title>
<ellipse fill="none" stroke="black" cx="401.92" cy="-288" rx="144.87" ry="18"/>
<text text-anchor="middle" x="401.92" y="-284.3" font-family="Times,serif" font-size="14.00">source_sheet_section_5_html</text>
</g>
<!-- source_sheet_section_5_html&#45;&gt;html -->
<g id="edge10" class="edge">
<title>source_sheet_section_5_html&#45;&gt;html</title>
<path fill="none" stroke="black" d="M512.81,-299.61C549.77,-303.51 588.77,-307.63 617.11,-310.62"/>
<polygon fill="black" stroke="black" points="617.11,-314.14 627.43,-311.71 617.85,-307.18 617.11,-314.14"/>
</g>
<!-- target_pages_page_1_html -->
<g id="node12" class="node">
<title>target_pages_page_1_html</title>
<ellipse fill="none" stroke="black" cx="401.92" cy="-180" rx="133.78" ry="18"/>
<text text-anchor="middle" x="401.92" y="-176.3" font-family="Times,serif" font-size="14.00">target_pages_page_1_html</text>
</g>
<!-- target_pages_page_1_html&#45;&gt;pages -->
<g id="edge11" class="edge">
<title>target_pages_page_1_html&#45;&gt;pages</title>
<path fill="none" stroke="black" d="M535.97,-180C562.87,-180 589.46,-180 610.96,-180"/>
<polygon fill="black" stroke="black" points="611.09,-183.5 621.09,-180 611.09,-176.5 611.09,-183.5"/>
</g>
<!-- target_pages_page_2_html -->
<g id="node13" class="node">
<title>target_pages_page_2_html</title>
<ellipse fill="none" stroke="black" cx="401.92" cy="-126" rx="133.78" ry="18"/>
<text text-anchor="middle" x="401.92" y="-122.3" font-family="Times,serif" font-size="14.00">target_pages_page_2_html</text>
</g>
<!-- target_pages_page_2_html&#45;&gt;pages -->
<g id="edge12" class="edge">
<title>target_pages_page_2_html&#45;&gt;pages</title>
<path fill="none" stroke="black" d="M483.38,-140.33C504.11,-144.23 526.35,-148.6 546.85,-153 569.65,-157.89 594.91,-163.94 615.64,-169.08"/>
<polygon fill="black" stroke="black" points="614.87,-172.49 625.42,-171.52 616.56,-165.7 614.87,-172.49"/>
</g>
<!-- target_sheet_css -->
<g id="node14" class="node">
<title>target_sheet_css</title>
<ellipse fill="none" stroke="black" cx="401.92" cy="-234" rx="88.28" ry="18"/>
<text text-anchor="middle" x="401.92" y="-230.3" font-family="Times,serif" font-size="14.00">target_sheet_css</text>
</g>
<!-- target_sheet_css&#45;&gt;css -->
<g id="edge13" class="edge">
<title>target_sheet_css&#45;&gt;css</title>
<path fill="none" stroke="black" d="M490.53,-234C535.53,-234 587.92,-234 622.08,-234"/>
<polygon fill="black" stroke="black" points="622.5,-237.5 632.5,-234 622.5,-230.5 622.5,-237.5"/>
</g>
<!-- source_sheet_css -->
<g id="node15" class="node">
<title>source_sheet_css</title>
<ellipse fill="none" stroke="black" cx="110.49" cy="-234" rx="90.18" ry="18"/>
<text text-anchor="middle" x="110.49" y="-230.3" font-family="Times,serif" font-size="14.00">source_sheet_css</text>
</g>
<!-- source_sheet_css&#45;&gt;target_sheet_css -->
<g id="edge14" class="edge">
<title>source_sheet_css&#45;&gt;target_sheet_css</title>
<path fill="none" stroke="black" d="M201.08,-234C233.43,-234 270.1,-234 303.12,-234"/>
<polygon fill="black" stroke="black" points="303.24,-237.5 313.24,-234 303.24,-230.5 303.24,-237.5"/>
</g>
<!-- cover_md -->
<g id="node16" class="node">
<title>cover_md</title>
<ellipse fill="none" stroke="black" cx="110.49" cy="-180" rx="55.49" ry="18"/>
<text text-anchor="middle" x="110.49" y="-176.3" font-family="Times,serif" font-size="14.00">cover_md</text>
</g>
<!-- cover_md&#45;&gt;target_pages_page_1_html -->
<g id="edge15" class="edge">
<title>cover_md&#45;&gt;target_pages_page_1_html</title>
<path fill="none" stroke="black" d="M165.93,-180C192.2,-180 225.07,-180 257.83,-180"/>
<polygon fill="black" stroke="black" points="257.99,-183.5 267.99,-180 257.99,-176.5 257.99,-183.5"/>
</g>
<!-- table_of_contents_md -->
<g id="node17" class="node">
<title>table_of_contents_md</title>
<ellipse fill="none" stroke="black" cx="110.49" cy="-126" rx="110.48" ry="18"/>
<text text-anchor="middle" x="110.49" y="-122.3" font-family="Times,serif" font-size="14.00">table_of_contents_md</text>
</g>
<!-- table_of_contents_md&#45;&gt;target_pages_page_2_html -->
<g id="edge16" class="edge">
<title>table_of_contents_md&#45;&gt;target_pages_page_2_html</title>
<path fill="none" stroke="black" d="M221.32,-126C233.19,-126 245.39,-126 257.58,-126"/>
<polygon fill="black" stroke="black" points="257.81,-129.5 267.81,-126 257.81,-122.5 257.81,-129.5"/>
</g>
<!-- target_dag_gv -->
<g id="node18" class="node">
<title>target_dag_gv</title>
<ellipse fill="none" stroke="black" cx="659.55" cy="-72" rx="76.89" ry="18"/>
<text text-anchor="middle" x="659.55" y="-68.3" font-family="Times,serif" font-size="14.00">target_dag_gv</text>
</g>
<!-- target_dag_gv&#45;&gt;target_dag_svg -->
<g id="edge17" class="edge">
<title>target_dag_gv&#45;&gt;target_dag_svg</title>
<path fill="none" stroke="black" d="M726.73,-80.69C745.91,-83.21 767.04,-85.99 786.93,-88.6"/>
<polygon fill="black" stroke="black" points="786.52,-92.07 796.89,-89.91 787.43,-85.13 786.52,-92.07"/>
</g>
<!-- Makefile -->
<g id="node19" class="node">
<title>Makefile</title>
<ellipse fill="none" stroke="black" cx="401.92" cy="-72" rx="50.09" ry="18"/>
<text text-anchor="middle" x="401.92" y="-68.3" font-family="Times,serif" font-size="14.00">Makefile</text>
</g>
<!-- Makefile&#45;&gt;target_dag_gv -->
<g id="edge18" class="edge">
<title>Makefile&#45;&gt;target_dag_gv</title>
<path fill="none" stroke="black" d="M452.21,-72C486.31,-72 532.6,-72 572.69,-72"/>
<polygon fill="black" stroke="black" points="572.74,-75.5 582.74,-72 572.74,-68.5 572.74,-75.5"/>
</g>
<!-- make2dag_py -->
<g id="node20" class="node">
<title>make2dag_py</title>
<ellipse fill="none" stroke="black" cx="401.92" cy="-18" rx="74.19" ry="18"/>
<text text-anchor="middle" x="401.92" y="-14.3" font-family="Times,serif" font-size="14.00">make2dag_py</text>
</g>
<!-- make2dag_py&#45;&gt;target_dag_gv -->
<g id="edge19" class="edge">
<title>make2dag_py&#45;&gt;target_dag_gv</title>
<path fill="none" stroke="black" d="M462.58,-28.48C488.54,-33.22 519.26,-39.08 546.85,-45 563.09,-48.48 580.57,-52.55 596.78,-56.46"/>
<polygon fill="black" stroke="black" points="596.14,-59.91 606.68,-58.87 597.79,-53.11 596.14,-59.91"/>
</g>
</g>
</svg>
