<?xml version="1.0" encoding="UTF-8" standalone="no"?>
<!DOCTYPE svg PUBLIC "-//W3C//DTD SVG 1.1//EN"
 "http://www.w3.org/Graphics/SVG/1.1/DTD/svg11.dtd">
<!-- Generated by graphviz version 7.0.1 (20221109.1506)
 -->
<!-- Pages: 1 -->
<svg width="1536pt" height="611pt"
 viewBox="0.00 0.00 1536.00 611.00" xmlns="http://www.w3.org/2000/svg" xmlns:xlink="http://www.w3.org/1999/xlink">
<g id="graph0" class="graph" transform="scale(1 1) rotate(0) translate(4 607)">
<!-- sheets -->
<g id="node1" class="node">
<title>sheets</title>
<polygon fill="none" stroke="black" points="1438,-441 1372,-441 1372,-405 1438,-405 1438,-441"/>
<text text-anchor="middle" x="1405" y="-419.3" font-family="Courier New" font-size="14.00">sheets</text>
</g>
<!-- all -->
<g id="node2" class="node">
<title>all</title>
<polygon fill="none" stroke="black" points="1528,-441 1474,-441 1474,-405 1528,-405 1528,-441"/>
<text text-anchor="middle" x="1501" y="-419.3" font-family="Courier New" font-size="14.00">all</text>
</g>
<!-- sheets&#45;&gt;all -->
<g id="edge1" class="edge">
<title>sheets&#45;&gt;all</title>
<path fill="none" stroke="black" d="M1438.35,-423C1446.06,-423 1454.35,-423 1462.27,-423"/>
<polygon fill="black" stroke="black" points="1462,-426.5 1472,-423 1462,-419.5 1462,-426.5"/>
</g>
<!-- target_books_1984_1_jpeg -->
<g id="node3" class="node">
<title>target_books_1984_1_jpeg</title>
<polygon fill="none" stroke="black" points="358,-144 143,-144 143,-108 358,-108 358,-144"/>
<text text-anchor="middle" x="250.5" y="-122.3" font-family="Courier New" font-size="14.00">target_books_1984_1_jpeg</text>
</g>
<!-- 1984 -->
<g id="node4" class="node">
<title>1984</title>
<polygon fill="none" stroke="black" points="540.5,-63 486.5,-63 486.5,-27 540.5,-27 540.5,-63"/>
<text text-anchor="middle" x="513.5" y="-41.3" font-family="Courier New" font-size="14.00">1984</text>
</g>
<!-- target_books_1984_1_jpeg&#45;&gt;1984 -->
<g id="edge2" class="edge">
<title>target_books_1984_1_jpeg&#45;&gt;1984</title>
<path fill="none" stroke="black" d="M337.15,-107.51C344.33,-104.99 351.37,-102.17 358,-99 376.04,-90.37 375.85,-80.41 394,-72 419.67,-60.11 450.95,-53.27 474.93,-49.45"/>
<polygon fill="black" stroke="black" points="475.17,-52.95 484.56,-48.03 474.15,-46.03 475.17,-52.95"/>
</g>
<!-- target_crops_crop_0_html -->
<g id="node30" class="node">
<title>target_crops_crop_0_html</title>
<polygon fill="none" stroke="black" points="621,-225 406,-225 406,-189 621,-189 621,-225"/>
<text text-anchor="middle" x="513.5" y="-203.3" font-family="Courier New" font-size="14.00">target_crops_crop_0_html</text>
</g>
<!-- target_books_1984_1_jpeg&#45;&gt;target_crops_crop_0_html -->
<g id="edge45" class="edge">
<title>target_books_1984_1_jpeg&#45;&gt;target_crops_crop_0_html</title>
<path fill="none" stroke="black" d="M337.15,-144.49C344.33,-147.01 351.37,-149.83 358,-153 376.04,-161.63 375.85,-171.59 394,-180 397.55,-181.65 401.22,-183.2 404.95,-184.65"/>
<polygon fill="black" stroke="black" points="403.62,-187.9 414.22,-188.01 406.01,-181.31 403.62,-187.9"/>
</g>
<!-- target_books_1984_2_jpeg -->
<g id="node5" class="node">
<title>target_books_1984_2_jpeg</title>
<polygon fill="none" stroke="black" points="358,-90 143,-90 143,-54 358,-54 358,-90"/>
<text text-anchor="middle" x="250.5" y="-68.3" font-family="Courier New" font-size="14.00">target_books_1984_2_jpeg</text>
</g>
<!-- target_books_1984_2_jpeg&#45;&gt;1984 -->
<g id="edge3" class="edge">
<title>target_books_1984_2_jpeg&#45;&gt;1984</title>
<path fill="none" stroke="black" d="M358.41,-60.94C399.67,-56.67 444.19,-52.07 474.71,-48.91"/>
<polygon fill="black" stroke="black" points="474.99,-52.4 484.58,-47.89 474.27,-45.44 474.99,-52.4"/>
</g>
<!-- target_crops_crop_1_html -->
<g id="node31" class="node">
<title>target_crops_crop_1_html</title>
<polygon fill="none" stroke="black" points="621,-171 406,-171 406,-135 621,-135 621,-171"/>
<text text-anchor="middle" x="513.5" y="-149.3" font-family="Courier New" font-size="14.00">target_crops_crop_1_html</text>
</g>
<!-- target_books_1984_2_jpeg&#45;&gt;target_crops_crop_1_html -->
<g id="edge47" class="edge">
<title>target_books_1984_2_jpeg&#45;&gt;target_crops_crop_1_html</title>
<path fill="none" stroke="black" d="M337.15,-90.49C344.33,-93.01 351.37,-95.83 358,-99 376.04,-107.63 375.85,-117.59 394,-126 397.55,-127.65 401.22,-129.2 404.95,-130.65"/>
<polygon fill="black" stroke="black" points="403.62,-133.9 414.22,-134.01 406.01,-127.31 403.62,-133.9"/>
</g>
<!-- target_books_1984_3_jpeg -->
<g id="node6" class="node">
<title>target_books_1984_3_jpeg</title>
<polygon fill="none" stroke="black" points="358,-36 143,-36 143,0 358,0 358,-36"/>
<text text-anchor="middle" x="250.5" y="-14.3" font-family="Courier New" font-size="14.00">target_books_1984_3_jpeg</text>
</g>
<!-- target_books_1984_3_jpeg&#45;&gt;1984 -->
<g id="edge4" class="edge">
<title>target_books_1984_3_jpeg&#45;&gt;1984</title>
<path fill="none" stroke="black" d="M358.41,-29.06C399.67,-33.33 444.19,-37.93 474.71,-41.09"/>
<polygon fill="black" stroke="black" points="474.27,-44.56 484.58,-42.11 474.99,-37.6 474.27,-44.56"/>
</g>
<!-- target_crops_crop_2_html -->
<g id="node32" class="node">
<title>target_crops_crop_2_html</title>
<polygon fill="none" stroke="black" points="621,-117 406,-117 406,-81 621,-81 621,-117"/>
<text text-anchor="middle" x="513.5" y="-95.3" font-family="Courier New" font-size="14.00">target_crops_crop_2_html</text>
</g>
<!-- target_books_1984_3_jpeg&#45;&gt;target_crops_crop_2_html -->
<g id="edge49" class="edge">
<title>target_books_1984_3_jpeg&#45;&gt;target_crops_crop_2_html</title>
<path fill="none" stroke="black" d="M337.15,-36.49C344.33,-39.01 351.37,-41.83 358,-45 376.04,-53.63 375.85,-63.59 394,-72 397.55,-73.65 401.22,-75.2 404.95,-76.65"/>
<polygon fill="black" stroke="black" points="403.62,-79.9 414.22,-80.01 406.01,-73.31 403.62,-79.9"/>
</g>
<!-- target_books_1984_4_jpeg -->
<g id="node7" class="node">
<title>target_books_1984_4_jpeg</title>
<polygon fill="none" stroke="black" points="358,-198 143,-198 143,-162 358,-162 358,-198"/>
<text text-anchor="middle" x="250.5" y="-176.3" font-family="Courier New" font-size="14.00">target_books_1984_4_jpeg</text>
</g>
<!-- target_books_1984_4_jpeg&#45;&gt;1984 -->
<g id="edge5" class="edge">
<title>target_books_1984_4_jpeg&#45;&gt;1984</title>
<path fill="none" stroke="black" d="M345.75,-161.52C350.09,-159.02 354.21,-156.2 358,-153 388.12,-127.61 363.57,-97.02 394,-72 416.51,-53.49 449.23,-47.09 474.58,-45.13"/>
<polygon fill="black" stroke="black" points="474.7,-48.63 484.49,-44.58 474.32,-41.64 474.7,-48.63"/>
</g>
<!-- target_crops_crop_3_html -->
<g id="node33" class="node">
<title>target_crops_crop_3_html</title>
<polygon fill="none" stroke="black" points="621,-279 406,-279 406,-243 621,-243 621,-279"/>
<text text-anchor="middle" x="513.5" y="-257.3" font-family="Courier New" font-size="14.00">target_crops_crop_3_html</text>
</g>
<!-- target_books_1984_4_jpeg&#45;&gt;target_crops_crop_3_html -->
<g id="edge51" class="edge">
<title>target_books_1984_4_jpeg&#45;&gt;target_crops_crop_3_html</title>
<path fill="none" stroke="black" d="M337.15,-198.49C344.33,-201.01 351.37,-203.83 358,-207 376.04,-215.63 375.85,-225.59 394,-234 397.55,-235.65 401.22,-237.2 404.95,-238.65"/>
<polygon fill="black" stroke="black" points="403.62,-241.9 414.22,-242.01 406.01,-235.31 403.62,-241.9"/>
</g>
<!-- target_sheet_css -->
<g id="node8" class="node">
<title>target_sheet_css</title>
<polygon fill="none" stroke="black" points="851,-603 702,-603 702,-567 851,-567 851,-603"/>
<text text-anchor="middle" x="776.5" y="-581.3" font-family="Courier New" font-size="14.00">target_sheet_css</text>
</g>
<!-- css -->
<g id="node9" class="node">
<title>css</title>
<polygon fill="none" stroke="black" points="1021.5,-495 967.5,-495 967.5,-459 1021.5,-459 1021.5,-495"/>
<text text-anchor="middle" x="994.5" y="-473.3" font-family="Courier New" font-size="14.00">css</text>
</g>
<!-- target_sheet_css&#45;&gt;css -->
<g id="edge6" class="edge">
<title>target_sheet_css&#45;&gt;css</title>
<path fill="none" stroke="black" d="M851.29,-570.29C862.5,-566.92 873.74,-562.86 884,-558 914.1,-543.73 944.23,-520.64 965.25,-502.75"/>
<polygon fill="black" stroke="black" points="967.26,-505.64 972.52,-496.44 962.68,-500.35 967.26,-505.64"/>
</g>
<!-- target_sheets_sheet_0_html -->
<g id="node11" class="node">
<title>target_sheets_sheet_0_html</title>
<polygon fill="none" stroke="black" points="1336,-360 1105,-360 1105,-324 1336,-324 1336,-360"/>
<text text-anchor="middle" x="1220.5" y="-338.3" font-family="Courier New" font-size="14.00">target_sheets_sheet_0_html</text>
</g>
<!-- css&#45;&gt;target_sheets_sheet_0_html -->
<g id="edge12" class="edge">
<title>css&#45;&gt;target_sheets_sheet_0_html</title>
<path fill="none" stroke="black" d="M1021.66,-472.68C1037.06,-468.95 1056,-462.17 1069,-450 1097.76,-423.08 1074.67,-394.14 1105,-369 1105.96,-368.2 1106.95,-367.43 1107.95,-366.67"/>
<polygon fill="black" stroke="black" points="1109.69,-369.71 1116.13,-361.3 1105.85,-363.86 1109.69,-369.71"/>
</g>
<!-- target_sheets_sheet_1_html -->
<g id="node12" class="node">
<title>target_sheets_sheet_1_html</title>
<polygon fill="none" stroke="black" points="1336,-522 1105,-522 1105,-486 1336,-486 1336,-522"/>
<text text-anchor="middle" x="1220.5" y="-500.3" font-family="Courier New" font-size="14.00">target_sheets_sheet_1_html</text>
</g>
<!-- css&#45;&gt;target_sheets_sheet_1_html -->
<g id="edge15" class="edge">
<title>css&#45;&gt;target_sheets_sheet_1_html</title>
<path fill="none" stroke="black" d="M1021.63,-480.15C1039.99,-482.36 1066.05,-485.5 1093.24,-488.78"/>
<polygon fill="black" stroke="black" points="1092.68,-492.24 1103.02,-489.96 1093.51,-485.29 1092.68,-492.24"/>
</g>
<!-- target_sheets_sheet_2_html -->
<g id="node13" class="node">
<title>target_sheets_sheet_2_html</title>
<polygon fill="none" stroke="black" points="1336,-468 1105,-468 1105,-432 1336,-432 1336,-468"/>
<text text-anchor="middle" x="1220.5" y="-446.3" font-family="Courier New" font-size="14.00">target_sheets_sheet_2_html</text>
</g>
<!-- css&#45;&gt;target_sheets_sheet_2_html -->
<g id="edge18" class="edge">
<title>css&#45;&gt;target_sheets_sheet_2_html</title>
<path fill="none" stroke="black" d="M1021.63,-473.85C1039.99,-471.64 1066.05,-468.5 1093.24,-465.22"/>
<polygon fill="black" stroke="black" points="1093.51,-468.71 1103.02,-464.04 1092.68,-461.76 1093.51,-468.71"/>
</g>
<!-- target_sheets_sheet_3_html -->
<g id="node14" class="node">
<title>target_sheets_sheet_3_html</title>
<polygon fill="none" stroke="black" points="1336,-414 1105,-414 1105,-378 1336,-378 1336,-414"/>
<text text-anchor="middle" x="1220.5" y="-392.3" font-family="Courier New" font-size="14.00">target_sheets_sheet_3_html</text>
</g>
<!-- css&#45;&gt;target_sheets_sheet_3_html -->
<g id="edge21" class="edge">
<title>css&#45;&gt;target_sheets_sheet_3_html</title>
<path fill="none" stroke="black" d="M1021.81,-469.4C1036.2,-464.74 1054.07,-458.11 1069,-450 1086.57,-440.45 1086.88,-431.47 1105,-423 1108.53,-421.35 1112.17,-419.79 1115.88,-418.33"/>
<polygon fill="black" stroke="black" points="1116.9,-421.68 1125.09,-414.96 1114.5,-415.11 1116.9,-421.68"/>
</g>
<!-- source_sheet_css -->
<g id="node10" class="node">
<title>source_sheet_css</title>
<polygon fill="none" stroke="black" points="588,-603 439,-603 439,-567 588,-567 588,-603"/>
<text text-anchor="middle" x="513.5" y="-581.3" font-family="Courier New" font-size="14.00">source_sheet_css</text>
</g>
<!-- source_sheet_css&#45;&gt;target_sheet_css -->
<g id="edge7" class="edge">
<title>source_sheet_css&#45;&gt;target_sheet_css</title>
<path fill="none" stroke="black" d="M588.25,-585C620.07,-585 657.48,-585 690.47,-585"/>
<polygon fill="black" stroke="black" points="690.42,-588.5 700.42,-585 690.42,-581.5 690.42,-588.5"/>
</g>
<!-- target_sheets_sheet_0_html&#45;&gt;sheets -->
<g id="edge8" class="edge">
<title>target_sheets_sheet_0_html&#45;&gt;sheets</title>
<path fill="none" stroke="black" d="M1315.19,-360.44C1322.36,-362.95 1329.38,-365.79 1336,-369 1350.81,-376.18 1365.35,-387.06 1377.17,-397.17"/>
<polygon fill="black" stroke="black" points="1374.69,-399.65 1384.5,-403.68 1379.34,-394.42 1374.69,-399.65"/>
</g>
<!-- target_sheets_sheet_1_html&#45;&gt;sheets -->
<g id="edge9" class="edge">
<title>target_sheets_sheet_1_html&#45;&gt;sheets</title>
<path fill="none" stroke="black" d="M1315.19,-485.56C1322.36,-483.05 1329.38,-480.21 1336,-477 1350.81,-469.82 1365.35,-458.94 1377.17,-448.83"/>
<polygon fill="black" stroke="black" points="1379.34,-451.58 1384.5,-442.32 1374.69,-446.35 1379.34,-451.58"/>
</g>
<!-- target_sheets_sheet_2_html&#45;&gt;sheets -->
<g id="edge10" class="edge">
<title>target_sheets_sheet_2_html&#45;&gt;sheets</title>
<path fill="none" stroke="black" d="M1336.3,-433.02C1344.74,-431.77 1352.88,-430.56 1360.42,-429.45"/>
<polygon fill="black" stroke="black" points="1360.85,-432.92 1370.23,-428 1359.83,-426 1360.85,-432.92"/>
</g>
<!-- target_sheets_sheet_3_html&#45;&gt;sheets -->
<g id="edge11" class="edge">
<title>target_sheets_sheet_3_html&#45;&gt;sheets</title>
<path fill="none" stroke="black" d="M1336.3,-412.98C1344.74,-414.23 1352.88,-415.44 1360.42,-416.55"/>
<polygon fill="black" stroke="black" points="1359.83,-420 1370.23,-418 1360.85,-413.08 1359.83,-420"/>
</g>
<!-- pages -->
<g id="node15" class="node">
<title>pages</title>
<polygon fill="none" stroke="black" points="1023.5,-387 965.5,-387 965.5,-351 1023.5,-351 1023.5,-387"/>
<text text-anchor="middle" x="994.5" y="-365.3" font-family="Courier New" font-size="14.00">pages</text>
</g>
<!-- pages&#45;&gt;target_sheets_sheet_0_html -->
<g id="edge13" class="edge">
<title>pages&#45;&gt;target_sheets_sheet_0_html</title>
<path fill="none" stroke="black" d="M1023.87,-365.58C1042.1,-363.38 1067.2,-360.36 1093.35,-357.21"/>
<polygon fill="black" stroke="black" points="1093.59,-360.7 1103.1,-356.03 1092.76,-353.75 1093.59,-360.7"/>
</g>
<!-- pages&#45;&gt;target_sheets_sheet_1_html -->
<g id="edge16" class="edge">
<title>pages&#45;&gt;target_sheets_sheet_1_html</title>
<path fill="none" stroke="black" d="M1023.8,-373.85C1038.78,-377.68 1056.59,-384.39 1069,-396 1097.76,-422.92 1074.67,-451.86 1105,-477 1105.96,-477.8 1106.95,-478.57 1107.95,-479.33"/>
<polygon fill="black" stroke="black" points="1105.85,-482.14 1116.13,-484.7 1109.69,-476.29 1105.85,-482.14"/>
</g>
<!-- pages&#45;&gt;target_sheets_sheet_2_html -->
<g id="edge19" class="edge">
<title>pages&#45;&gt;target_sheets_sheet_2_html</title>
<path fill="none" stroke="black" d="M1023.91,-377.29C1037.9,-381.9 1054.79,-388.28 1069,-396 1086.57,-405.55 1086.88,-414.53 1105,-423 1108.53,-424.65 1112.17,-426.21 1115.88,-427.67"/>
<polygon fill="black" stroke="black" points="1114.5,-430.89 1125.09,-431.04 1116.9,-424.32 1114.5,-430.89"/>
</g>
<!-- pages&#45;&gt;target_sheets_sheet_3_html -->
<g id="edge22" class="edge">
<title>pages&#45;&gt;target_sheets_sheet_3_html</title>
<path fill="none" stroke="black" d="M1023.87,-372.42C1042.1,-374.62 1067.2,-377.64 1093.35,-380.79"/>
<polygon fill="black" stroke="black" points="1092.76,-384.25 1103.1,-381.97 1093.59,-377.3 1092.76,-384.25"/>
</g>
<!-- render_sheets_py -->
<g id="node16" class="node">
<title>render_sheets_py</title>
<polygon fill="none" stroke="black" points="1069,-441 920,-441 920,-405 1069,-405 1069,-441"/>
<text text-anchor="middle" x="994.5" y="-419.3" font-family="Courier New" font-size="14.00">render_sheets_py</text>
</g>
<!-- render_sheets_py&#45;&gt;target_sheets_sheet_0_html -->
<g id="edge14" class="edge">
<title>render_sheets_py&#45;&gt;target_sheets_sheet_0_html</title>
<path fill="none" stroke="black" d="M1050.86,-404.66C1057.1,-402.01 1063.27,-399.12 1069,-396 1086.57,-386.45 1086.88,-377.47 1105,-369 1108.53,-367.35 1112.17,-365.79 1115.88,-364.33"/>
<polygon fill="black" stroke="black" points="1116.9,-367.68 1125.09,-360.96 1114.5,-361.11 1116.9,-367.68"/>
</g>
<!-- render_sheets_py&#45;&gt;target_sheets_sheet_1_html -->
<g id="edge17" class="edge">
<title>render_sheets_py&#45;&gt;target_sheets_sheet_1_html</title>
<path fill="none" stroke="black" d="M1050.86,-441.34C1057.1,-443.99 1063.27,-446.88 1069,-450 1086.57,-459.55 1086.88,-468.53 1105,-477 1108.53,-478.65 1112.17,-480.21 1115.88,-481.67"/>
<polygon fill="black" stroke="black" points="1114.5,-484.89 1125.09,-485.04 1116.9,-478.32 1114.5,-484.89"/>
</g>
<!-- render_sheets_py&#45;&gt;target_sheets_sheet_2_html -->
<g id="edge20" class="edge">
<title>render_sheets_py&#45;&gt;target_sheets_sheet_2_html</title>
<path fill="none" stroke="black" d="M1069.47,-431.92C1077.26,-432.86 1085.34,-433.83 1093.52,-434.81"/>
<polygon fill="black" stroke="black" points="1092.87,-438.26 1103.21,-435.98 1093.7,-431.31 1092.87,-438.26"/>
</g>
<!-- render_sheets_py&#45;&gt;target_sheets_sheet_3_html -->
<g id="edge23" class="edge">
<title>render_sheets_py&#45;&gt;target_sheets_sheet_3_html</title>
<path fill="none" stroke="black" d="M1069.47,-414.08C1077.26,-413.14 1085.34,-412.17 1093.52,-411.19"/>
<polygon fill="black" stroke="black" points="1093.7,-414.69 1103.21,-410.02 1092.87,-407.74 1093.7,-414.69"/>
</g>
<!-- target_pages_page_1_html -->
<g id="node17" class="node">
<title>target_pages_page_1_html</title>
<polygon fill="none" stroke="black" points="884,-495 669,-495 669,-459 884,-459 884,-495"/>
<text text-anchor="middle" x="776.5" y="-473.3" font-family="Courier New" font-size="14.00">target_pages_page_1_html</text>
</g>
<!-- target_pages_page_1_html&#45;&gt;pages -->
<g id="edge24" class="edge">
<title>target_pages_page_1_html&#45;&gt;pages</title>
<path fill="none" stroke="black" d="M869.29,-458.62C874.46,-456.11 879.41,-453.25 884,-450 907.55,-433.35 897.34,-413.85 920,-396 930.05,-388.08 942.66,-382.33 954.57,-378.23"/>
<polygon fill="black" stroke="black" points="955.28,-381.67 963.79,-375.36 953.2,-374.99 955.28,-381.67"/>
</g>
<!-- target_pages_page_2_html -->
<g id="node18" class="node">
<title>target_pages_page_2_html</title>
<polygon fill="none" stroke="black" points="884,-441 669,-441 669,-405 884,-405 884,-441"/>
<text text-anchor="middle" x="776.5" y="-419.3" font-family="Courier New" font-size="14.00">target_pages_page_2_html</text>
</g>
<!-- target_pages_page_2_html&#45;&gt;pages -->
<g id="edge25" class="edge">
<title>target_pages_page_2_html&#45;&gt;pages</title>
<path fill="none" stroke="black" d="M851.23,-404.57C885.86,-395.91 925.74,-385.94 954.45,-378.76"/>
<polygon fill="black" stroke="black" points="954.93,-382.25 963.79,-376.43 953.24,-375.46 954.93,-382.25"/>
</g>
<!-- target_pages_page_3_html -->
<g id="node19" class="node">
<title>target_pages_page_3_html</title>
<polygon fill="none" stroke="black" points="884,-387 669,-387 669,-351 884,-351 884,-387"/>
<text text-anchor="middle" x="776.5" y="-365.3" font-family="Courier New" font-size="14.00">target_pages_page_3_html</text>
</g>
<!-- target_pages_page_3_html&#45;&gt;pages -->
<g id="edge26" class="edge">
<title>target_pages_page_3_html&#45;&gt;pages</title>
<path fill="none" stroke="black" d="M884.23,-369C909.17,-369 934.2,-369 954,-369"/>
<polygon fill="black" stroke="black" points="953.79,-372.5 963.79,-369 953.79,-365.5 953.79,-372.5"/>
</g>
<!-- target_pages_page_4_html -->
<g id="node20" class="node">
<title>target_pages_page_4_html</title>
<polygon fill="none" stroke="black" points="884,-549 669,-549 669,-513 884,-513 884,-549"/>
<text text-anchor="middle" x="776.5" y="-527.3" font-family="Courier New" font-size="14.00">target_pages_page_4_html</text>
</g>
<!-- target_pages_page_4_html&#45;&gt;pages -->
<g id="edge27" class="edge">
<title>target_pages_page_4_html&#45;&gt;pages</title>
<path fill="none" stroke="black" d="M872.62,-512.65C876.68,-510.12 880.51,-507.25 884,-504 921.07,-469.56 884.77,-432.31 920,-396 929.13,-386.59 941.82,-380.43 954.08,-376.42"/>
<polygon fill="black" stroke="black" points="954.99,-379.8 963.66,-373.72 953.08,-373.07 954.99,-379.8"/>
</g>
<!-- target_pages_page_5_html -->
<g id="node21" class="node">
<title>target_pages_page_5_html</title>
<polygon fill="none" stroke="black" points="884,-279 669,-279 669,-243 884,-243 884,-279"/>
<text text-anchor="middle" x="776.5" y="-257.3" font-family="Courier New" font-size="14.00">target_pages_page_5_html</text>
</g>
<!-- target_pages_page_5_html&#45;&gt;pages -->
<g id="edge28" class="edge">
<title>target_pages_page_5_html&#45;&gt;pages</title>
<path fill="none" stroke="black" d="M862.85,-279.44C870.13,-281.97 877.28,-284.81 884,-288 914.1,-302.27 944.23,-325.36 965.25,-343.25"/>
<polygon fill="black" stroke="black" points="962.68,-345.65 972.52,-349.56 967.26,-340.36 962.68,-345.65"/>
</g>
<!-- target_pages_page_6_html -->
<g id="node22" class="node">
<title>target_pages_page_6_html</title>
<polygon fill="none" stroke="black" points="884,-171 669,-171 669,-135 884,-135 884,-171"/>
<text text-anchor="middle" x="776.5" y="-149.3" font-family="Courier New" font-size="14.00">target_pages_page_6_html</text>
</g>
<!-- target_pages_page_6_html&#45;&gt;pages -->
<g id="edge29" class="edge">
<title>target_pages_page_6_html&#45;&gt;pages</title>
<path fill="none" stroke="black" d="M870.32,-171.44C875.14,-173.94 879.74,-176.78 884,-180 938.49,-221.16 970.5,-297.93 984.7,-339.85"/>
<polygon fill="black" stroke="black" points="981.33,-340.83 987.76,-349.25 987.99,-338.65 981.33,-340.83"/>
</g>
<!-- target_pages_page_7_html -->
<g id="node23" class="node">
<title>target_pages_page_7_html</title>
<polygon fill="none" stroke="black" points="884,-117 669,-117 669,-81 884,-81 884,-117"/>
<text text-anchor="middle" x="776.5" y="-95.3" font-family="Courier New" font-size="14.00">target_pages_page_7_html</text>
</g>
<!-- target_pages_page_7_html&#45;&gt;pages -->
<g id="edge30" class="edge">
<title>target_pages_page_7_html&#45;&gt;pages</title>
<path fill="none" stroke="black" d="M871.47,-117.36C875.91,-119.89 880.13,-122.75 884,-126 950.96,-182.16 978.72,-287.71 988.67,-339.21"/>
<polygon fill="black" stroke="black" points="985.22,-339.81 990.46,-349.01 992.11,-338.55 985.22,-339.81"/>
</g>
<!-- target_pages_page_8_html -->
<g id="node24" class="node">
<title>target_pages_page_8_html</title>
<polygon fill="none" stroke="black" points="884,-333 669,-333 669,-297 884,-297 884,-333"/>
<text text-anchor="middle" x="776.5" y="-311.3" font-family="Courier New" font-size="14.00">target_pages_page_8_html</text>
</g>
<!-- target_pages_page_8_html&#45;&gt;pages -->
<g id="edge31" class="edge">
<title>target_pages_page_8_html&#45;&gt;pages</title>
<path fill="none" stroke="black" d="M851.23,-333.43C885.86,-342.09 925.74,-352.06 954.45,-359.24"/>
<polygon fill="black" stroke="black" points="953.24,-362.54 963.79,-361.57 954.93,-355.75 953.24,-362.54"/>
</g>
<!-- source_cover_md -->
<g id="node25" class="node">
<title>source_cover_md</title>
<polygon fill="none" stroke="black" points="583.5,-495 443.5,-495 443.5,-459 583.5,-459 583.5,-495"/>
<text text-anchor="middle" x="513.5" y="-473.3" font-family="Courier New" font-size="14.00">source_cover_md</text>
</g>
<!-- source_cover_md&#45;&gt;target_pages_page_1_html -->
<g id="edge32" class="edge">
<title>source_cover_md&#45;&gt;target_pages_page_1_html</title>
<path fill="none" stroke="black" d="M583.76,-477C606.52,-477 632.49,-477 657.81,-477"/>
<polygon fill="black" stroke="black" points="657.49,-480.5 667.49,-477 657.49,-473.5 657.49,-480.5"/>
</g>
<!-- source_table_of_contents_md -->
<g id="node26" class="node">
<title>source_table_of_contents_md</title>
<polygon fill="none" stroke="black" points="633,-441 394,-441 394,-405 633,-405 633,-441"/>
<text text-anchor="middle" x="513.5" y="-419.3" font-family="Courier New" font-size="14.00">source_table_of_contents_md</text>
</g>
<!-- source_table_of_contents_md&#45;&gt;target_pages_page_2_html -->
<g id="edge33" class="edge">
<title>source_table_of_contents_md&#45;&gt;target_pages_page_2_html</title>
<path fill="none" stroke="black" d="M633.16,-423C641.22,-423 649.33,-423 657.38,-423"/>
<polygon fill="black" stroke="black" points="657.2,-426.5 667.2,-423 657.2,-419.5 657.2,-426.5"/>
</g>
<!-- source_dag_md -->
<g id="node27" class="node">
<title>source_dag_md</title>
<polygon fill="none" stroke="black" points="575.5,-387 451.5,-387 451.5,-351 575.5,-351 575.5,-387"/>
<text text-anchor="middle" x="513.5" y="-365.3" font-family="Courier New" font-size="14.00">source_dag_md</text>
</g>
<!-- source_dag_md&#45;&gt;target_pages_page_3_html -->
<g id="edge34" class="edge">
<title>source_dag_md&#45;&gt;target_pages_page_3_html</title>
<path fill="none" stroke="black" d="M575.69,-369C600.17,-369 629.22,-369 657.49,-369"/>
<polygon fill="black" stroke="black" points="657.18,-372.5 667.18,-369 657.18,-365.5 657.18,-372.5"/>
</g>
<!-- target_dag_svg -->
<g id="node28" class="node">
<title>target_dag_svg</title>
<polygon fill="none" stroke="black" points="579.5,-333 447.5,-333 447.5,-297 579.5,-297 579.5,-333"/>
<text text-anchor="middle" x="513.5" y="-311.3" font-family="Courier New" font-size="14.00">target_dag_svg</text>
</g>
<!-- target_dag_svg&#45;&gt;target_pages_page_3_html -->
<g id="edge35" class="edge">
<title>target_dag_svg&#45;&gt;target_pages_page_3_html</title>
<path fill="none" stroke="black" d="M579.69,-328.49C608.59,-334.47 643.25,-341.64 675.33,-348.28"/>
<polygon fill="black" stroke="black" points="674.57,-351.69 685.07,-350.29 675.99,-344.84 674.57,-351.69"/>
</g>
<!-- source_mandelbrot_set_md -->
<g id="node29" class="node">
<title>source_mandelbrot_set_md</title>
<polygon fill="none" stroke="black" points="621,-549 406,-549 406,-513 621,-513 621,-549"/>
<text text-anchor="middle" x="513.5" y="-527.3" font-family="Courier New" font-size="14.00">source_mandelbrot_set_md</text>
</g>
<!-- source_mandelbrot_set_md&#45;&gt;target_pages_page_4_html -->
<g id="edge36" class="edge">
<title>source_mandelbrot_set_md&#45;&gt;target_pages_page_4_html</title>
<path fill="none" stroke="black" d="M621.41,-531C633.25,-531 645.36,-531 657.33,-531"/>
<polygon fill="black" stroke="black" points="657.24,-534.5 667.24,-531 657.24,-527.5 657.24,-534.5"/>
</g>
<!-- target_crops_crop_0_html&#45;&gt;target_pages_page_5_html -->
<g id="edge37" class="edge">
<title>target_crops_crop_0_html&#45;&gt;target_pages_page_5_html</title>
<path fill="none" stroke="black" d="M603.59,-225.43C626.67,-230.21 651.67,-235.38 675.27,-240.26"/>
<polygon fill="black" stroke="black" points="674.38,-243.65 684.89,-242.25 675.8,-236.8 674.38,-243.65"/>
</g>
<!-- crops -->
<g id="node34" class="node">
<title>crops</title>
<polygon fill="none" stroke="black" points="805.5,-225 747.5,-225 747.5,-189 805.5,-189 805.5,-225"/>
<text text-anchor="middle" x="776.5" y="-203.3" font-family="Courier New" font-size="14.00">crops</text>
</g>
<!-- target_crops_crop_0_html&#45;&gt;crops -->
<g id="edge41" class="edge">
<title>target_crops_crop_0_html&#45;&gt;crops</title>
<path fill="none" stroke="black" d="M621.41,-207C661.8,-207 705.31,-207 735.76,-207"/>
<polygon fill="black" stroke="black" points="735.65,-210.5 745.65,-207 735.65,-203.5 735.65,-210.5"/>
</g>
<!-- target_crops_crop_1_html&#45;&gt;target_pages_page_6_html -->
<g id="edge38" class="edge">
<title>target_crops_crop_1_html&#45;&gt;target_pages_page_6_html</title>
<path fill="none" stroke="black" d="M621.41,-153C633.25,-153 645.36,-153 657.33,-153"/>
<polygon fill="black" stroke="black" points="657.24,-156.5 667.24,-153 657.24,-149.5 657.24,-156.5"/>
</g>
<!-- target_crops_crop_1_html&#45;&gt;crops -->
<g id="edge42" class="edge">
<title>target_crops_crop_1_html&#45;&gt;crops</title>
<path fill="none" stroke="black" d="M603.59,-171.43C648.57,-180.74 700.87,-191.56 735.86,-198.8"/>
<polygon fill="black" stroke="black" points="735.05,-202.2 745.55,-200.8 736.46,-195.35 735.05,-202.2"/>
</g>
<!-- target_crops_crop_2_html&#45;&gt;target_pages_page_7_html -->
<g id="edge39" class="edge">
<title>target_crops_crop_2_html&#45;&gt;target_pages_page_7_html</title>
<path fill="none" stroke="black" d="M621.41,-99C633.25,-99 645.36,-99 657.33,-99"/>
<polygon fill="black" stroke="black" points="657.24,-102.5 667.24,-99 657.24,-95.5 657.24,-102.5"/>
</g>
<!-- target_crops_crop_2_html&#45;&gt;crops -->
<g id="edge43" class="edge">
<title>target_crops_crop_2_html&#45;&gt;crops</title>
<path fill="none" stroke="black" d="M618.06,-117.4C623.29,-119.92 628.31,-122.77 633,-126 656.75,-142.37 645.45,-163.35 669,-180 688.58,-193.85 714.61,-200.6 736.04,-203.9"/>
<polygon fill="black" stroke="black" points="735.53,-207.36 745.9,-205.2 736.44,-200.42 735.53,-207.36"/>
</g>
<!-- target_crops_crop_3_html&#45;&gt;target_pages_page_8_html -->
<g id="edge40" class="edge">
<title>target_crops_crop_3_html&#45;&gt;target_pages_page_8_html</title>
<path fill="none" stroke="black" d="M603.59,-279.43C626.67,-284.21 651.67,-289.38 675.27,-294.26"/>
<polygon fill="black" stroke="black" points="674.38,-297.65 684.89,-296.25 675.8,-290.8 674.38,-297.65"/>
</g>
<!-- target_crops_crop_3_html&#45;&gt;crops -->
<g id="edge44" class="edge">
<title>target_crops_crop_3_html&#45;&gt;crops</title>
<path fill="none" stroke="black" d="M603.59,-242.57C648.57,-233.26 700.87,-222.44 735.86,-215.2"/>
<polygon fill="black" stroke="black" points="736.46,-218.65 745.55,-213.2 735.05,-211.8 736.46,-218.65"/>
</g>
<!-- render_crops_py -->
<g id="node35" class="node">
<title>render_crops_py</title>
<polygon fill="none" stroke="black" points="320.5,-252 180.5,-252 180.5,-216 320.5,-216 320.5,-252"/>
<text text-anchor="middle" x="250.5" y="-230.3" font-family="Courier New" font-size="14.00">render_crops_py</text>
</g>
<!-- render_crops_py&#45;&gt;target_crops_crop_0_html -->
<g id="edge46" class="edge">
<title>render_crops_py&#45;&gt;target_crops_crop_0_html</title>
<path fill="none" stroke="black" d="M320.76,-226.84C343.52,-224.48 369.49,-221.79 394.81,-219.17"/>
<polygon fill="black" stroke="black" points="394.91,-222.68 404.49,-218.17 394.19,-215.72 394.91,-222.68"/>
</g>
<!-- render_crops_py&#45;&gt;target_crops_crop_1_html -->
<g id="edge48" class="edge">
<title>render_crops_py&#45;&gt;target_crops_crop_1_html</title>
<path fill="none" stroke="black" d="M320.8,-220.67C333.49,-217.05 346.38,-212.55 358,-207 376.04,-198.37 375.85,-188.41 394,-180 397.55,-178.35 401.22,-176.8 404.95,-175.35"/>
<polygon fill="black" stroke="black" points="406.01,-178.69 414.22,-171.99 403.62,-172.1 406.01,-178.69"/>
</g>
<!-- render_crops_py&#45;&gt;target_crops_crop_2_html -->
<g id="edge50" class="edge">
<title>render_crops_py&#45;&gt;target_crops_crop_2_html</title>
<path fill="none" stroke="black" d="M320.92,-226.01C334.3,-221.94 347.43,-215.91 358,-207 388.12,-181.61 363.57,-151.02 394,-126 394.98,-125.2 395.97,-124.41 396.99,-123.66"/>
<polygon fill="black" stroke="black" points="398.84,-126.63 405.3,-118.23 395.01,-120.77 398.84,-126.63"/>
</g>
<!-- render_crops_py&#45;&gt;target_crops_crop_3_html -->
<g id="edge52" class="edge">
<title>render_crops_py&#45;&gt;target_crops_crop_3_html</title>
<path fill="none" stroke="black" d="M320.76,-241.16C343.52,-243.52 369.49,-246.21 394.81,-248.83"/>
<polygon fill="black" stroke="black" points="394.19,-252.28 404.49,-249.83 394.91,-245.32 394.19,-252.28"/>
</g>
<!-- target_dag_gv -->
<g id="node36" class="node">
<title>target_dag_gv</title>
<polygon fill="none" stroke="black" points="312.5,-333 188.5,-333 188.5,-297 312.5,-297 312.5,-333"/>
<text text-anchor="middle" x="250.5" y="-311.3" font-family="Courier New" font-size="14.00">target_dag_gv</text>
</g>
<!-- target_dag_gv&#45;&gt;target_dag_svg -->
<g id="edge53" class="edge">
<title>target_dag_gv&#45;&gt;target_dag_svg</title>
<path fill="none" stroke="black" d="M312.69,-315C349.44,-315 396.53,-315 435.76,-315"/>
<polygon fill="black" stroke="black" points="435.61,-318.5 445.61,-315 435.61,-311.5 435.61,-318.5"/>
</g>
<!-- Makefile -->
<g id="node37" class="node">
<title>Makefile</title>
<polygon fill="none" stroke="black" points="95,-360 12,-360 12,-324 95,-324 95,-360"/>
<text text-anchor="middle" x="53.5" y="-338.3" font-family="Courier New" font-size="14.00">Makefile</text>
</g>
<!-- Makefile&#45;&gt;target_dag_gv -->
<g id="edge54" class="edge">
<title>Makefile&#45;&gt;target_dag_gv</title>
<path fill="none" stroke="black" d="M95.38,-336.34C119.03,-333.06 149.49,-328.85 177.08,-325.03"/>
<polygon fill="black" stroke="black" points="177.37,-328.52 186.8,-323.68 176.41,-321.59 177.37,-328.52"/>
</g>
<!-- make2dag_py -->
<g id="node38" class="node">
<title>make2dag_py</title>
<polygon fill="none" stroke="black" points="107,-306 0,-306 0,-270 107,-270 107,-306"/>
<text text-anchor="middle" x="53.5" y="-284.3" font-family="Courier New" font-size="14.00">make2dag_py</text>
</g>
<!-- make2dag_py&#45;&gt;target_dag_gv -->
<g id="edge55" class="edge">
<title>make2dag_py&#45;&gt;target_dag_gv</title>
<path fill="none" stroke="black" d="M107.27,-295.31C128.69,-298.27 153.79,-301.75 176.89,-304.95"/>
<polygon fill="black" stroke="black" points="176.16,-308.38 186.55,-306.28 177.12,-301.45 176.16,-308.38"/>
</g>
</g>
</svg>
